<?xml version="1.0" encoding="UTF-8"?>
<svg version="1.1" xmlns="http://www.w3.org/2000/svg" viewBox="0 0 912 1000" width="100%" height="100%">
<path d="M0 0 C2.65965802 0.99316344 3.80801472 1.67550955 5.2734375 4.15234375 C10.52776926 17.43723221 14.77466182 31.08293306 18 45 C18.30550781 46.24394531 18.61101562 47.48789063 18.92578125 48.76953125 C23.15088773 66.05011344 26.15736618 83.46266924 28.6875 101.0625 C28.79609344 101.81271423 28.90468689 102.56292847 29.01657104 103.33587646 C32.64172175 128.51449658 32.64172175 128.51449658 31 138 C27.42685283 135.61790189 26.7957295 133.85190831 25 130 C23.81949216 127.76712259 22.63138208 125.53825512 21.4375 123.3125 C7.82872422 97.87140791 7.82872422 97.87140791 2 86 C-0.30991975 92.45828653 -1.9934996 98.92445688 -3.4375 105.625 C-4.78132694 111.82379766 -6.23680216 117.96652027 -7.89453125 124.08984375 C-10.20893868 132.66115827 -12.23860293 141.29090036 -14.25 149.9375 C-14.61697499 151.50721116 -14.98416149 153.07687288 -15.3515625 154.64648438 C-16.23680206 158.43042704 -17.1192198 162.21501697 -18 166 C-17.19248291 165.39164307 -16.38496582 164.78328613 -15.55297852 164.15649414 C-14.4741517 163.34517414 -13.39529256 162.53389713 -12.31640625 161.72265625 C-11.78648071 161.32324829 -11.25655518 160.92384033 -10.71057129 160.5123291 C-6.70642662 157.5034609 -2.63383624 154.61125524 1.484375 151.76171875 C5.18725068 149.16855581 8.82080831 146.48241632 12.45703125 143.796875 C14.90786482 142.0651032 17.40694952 140.50834534 20 139 C20.23617097 145.09876812 19.48897593 150.25331095 17.875 156.125 C17.53505005 157.37059692 17.53505005 157.37059692 17.18823242 158.64135742 C11.82598323 177.63334271 2.31606906 191.66373795 -12 205 C-11.03175293 204.72736328 -11.03175293 204.72736328 -10.04394531 204.44921875 C-7.114098 203.62747085 -4.18210358 202.81365874 -1.25 202 C-0.23421875 201.71382812 0.7815625 201.42765625 1.828125 201.1328125 C2.8078125 200.86210937 3.7875 200.59140625 4.796875 200.3125 C5.69760742 200.06113281 6.59833984 199.80976563 7.52636719 199.55078125 C10 199 10 199 14 199 C14.84688199 206.8336584 11.41178707 214.43974221 7 220.75 C2.60290251 226.01148418 -2.94023325 228.96242656 -9 232 C-9.83015625 232.41636719 -10.6603125 232.83273437 -11.515625 233.26171875 C-18.5820115 236.6060306 -25.90313933 239.39467415 -33.18359375 242.23413086 C-34.43849609 242.72731812 -34.43849609 242.72731812 -35.71875 243.23046875 C-36.47091797 243.52332764 -37.22308594 243.81618652 -37.99804688 244.11791992 C-40.24653754 245.04004691 -40.24653754 245.04004691 -43 247 C-42.4946875 247.33773437 -41.989375 247.67546875 -41.46875 248.0234375 C-40.8190625 248.46945312 -40.169375 248.91546875 -39.5 249.375 C-38.8503125 249.81585938 -38.200625 250.25671875 -37.53125 250.7109375 C-36.77328125 251.34902344 -36.77328125 251.34902344 -36 252 C-36 252.66 -36 253.32 -36 254 C-35.360625 254.103125 -34.72125 254.20625 -34.0625 254.3125 C-33.0415625 254.6528125 -33.0415625 254.6528125 -32 255 C-31.67 255.99 -31.34 256.98 -31 258 C-31.82274414 258.07516846 -32.64548828 258.15033691 -33.49316406 258.2277832 C-52.68187249 259.98732446 -71.84675009 261.88470855 -91 264 C-84.84084436 266.80297457 -78.61718357 269.35779751 -72.3125 271.8125 C-63.95169996 275.1043503 -55.94004864 278.79335171 -48 283 C-48.33 283.66 -48.66 284.32 -49 285 C-51.17724609 285.68603516 -51.17724609 285.68603516 -54.0234375 286.2890625 C-55.044375 286.50820313 -56.0653125 286.72734375 -57.1171875 286.953125 C-58.19226563 287.17484375 -59.26734375 287.3965625 -60.375 287.625 C-61.44234375 287.85445313 -62.5096875 288.08390625 -63.609375 288.3203125 C-71.54789807 290 -71.54789807 290 -75 290 C-72.13878207 291.43060897 -69.73201313 291.07412342 -66.53515625 291.03125 C-60.66257432 290.98293771 -54.80389744 291.04766873 -48.93359375 291.21875 C-48.15843414 291.24098633 -47.38327454 291.26322266 -46.58462524 291.28613281 C-44.20219793 291.35578134 -41.81984322 291.42753514 -39.4375 291.5 C-28.62007462 291.82830153 -17.82376548 292.07880586 -7 292 C-24.2878504 284.55512063 -41.60627574 277.19507195 -59 270 C-58.67 269.01 -58.34 268.02 -58 267 C-9.06067354 265.76968174 40.12169217 281.38734141 86.31738281 296.14355469 C89.21854252 297.06977131 92.12097679 297.99193134 95.0234375 298.9140625 C106.01820001 302.41359524 116.99523308 305.95671059 127.92529297 309.65405273 C133.58301092 311.56024351 139.27432966 313.30820921 145 315 C141.37 313.35 137.74 311.7 134 310 C134 309.34 134 308.68 134 308 C133.360625 307.9175 132.72125 307.835 132.0625 307.75 C127.82487956 306.7122154 123.83008317 305.09704967 120 303 C119.67 302.34 119.34 301.68 119 301 C117.33849373 300.64182991 115.67064889 300.31276378 114 300 C112.336488 299.31203968 110.69589277 298.56689364 109.078125 297.77734375 C108.14355469 297.32520508 107.20898438 296.87306641 106.24609375 296.40722656 C105.25738281 295.9222168 104.26867187 295.43720703 103.25 294.9375 C101.17208321 293.93055982 99.0939566 292.92405249 97.015625 291.91796875 C95.99275391 291.42087402 94.96988281 290.9237793 93.91601562 290.41162109 C89.95751765 288.49534219 85.98197698 286.61688894 82 284.75 C81.32718994 284.43393799 80.65437988 284.11787598 79.96118164 283.79223633 C76.56371 282.19758921 73.16340643 280.60906919 69.76171875 279.0234375 C69.07658203 278.70407227 68.39144531 278.38470703 67.68554688 278.05566406 C65.81552899 277.18463423 63.94489627 276.31492475 62.07421875 275.4453125 C59.69782239 274.32807406 57.34026983 273.19035947 55 272 C58.40516626 269.87532385 60.42384757 269.92234071 64.32421875 270.64453125 C65.35353516 270.82693359 66.38285156 271.00933594 67.44335938 271.19726562 C68.51392578 271.40029297 69.58449219 271.60332031 70.6875 271.8125 C72.79515766 272.19629787 74.90322675 272.57784383 77.01171875 272.95703125 C78.0270166 273.14072266 79.04231445 273.32441406 80.08837891 273.51367188 C83.40088979 274.06696063 86.70607581 274.46103261 90.04907227 274.77270508 C92.91013803 275.1060366 95.67735889 275.73836984 98.4765625 276.40625 C100.38090189 276.85432986 102.29421511 277.26451112 104.2109375 277.65625 C110.52711075 278.98597068 115.63103488 280.37907004 121 284 C120.06692579 282.55962331 119.12834923 281.12281015 118.1875 279.6875 C117.40439453 278.48673828 117.40439453 278.48673828 116.60546875 277.26171875 C115.1704435 275.24011383 113.91864204 273.56352063 112 272 C110.845 271.835 109.69 271.67 108.5 271.5 C105 271 105 271 103.3515625 269.83984375 C101.48990578 267.30562318 101.28929494 265.16971203 100.875 262.0625 C100.7203125 260.91523438 100.565625 259.76796875 100.40625 258.5859375 C99.81854173 253.39828184 99.35661478 248.20845274 99 243 C103.4648479 244.63908868 105.73445501 246.5012018 109 250 C110.87844687 251.81962285 112.75944167 253.63647802 114.64453125 255.44921875 C116 257 116 257 116 259 C116.66 259 117.32 259 118 259 C119.7265625 261.08203125 119.7265625 261.08203125 121.625 263.8125 C122.25664063 264.70582031 122.88828125 265.59914063 123.5390625 266.51953125 C125 269 125 269 125 272 C125.66 271.67 126.32 271.34 127 271 C120.11370412 258.09967239 110.8741892 240.95806307 96 236 C96 235.34 96 234.68 96 234 C94.68 233.67 93.36 233.34 92 233 C92.28833497 235.41710591 92.58010261 237.83369132 92.875 240.25 C93.00600098 241.3330542 93.00600098 241.3330542 93.13964844 242.43798828 C93.82008635 247.91902463 94.73614701 253.32656691 95.828125 258.7421875 C95.88484375 259.48726563 95.9415625 260.23234375 96 261 C95.34 261.66 94.68 262.32 94 263 C92.43765625 262.11248047 92.43765625 262.11248047 90.84375 261.20703125 C65.1053123 246.89511559 38.83522596 243.81670458 10 249 C12.76946254 246.05744606 15.53102612 243.5499023 18.8125 241.1875 C27.35269015 234.87031814 37.57056263 225.2883121 41 215 C41.66 215 42.32 215 43 215 C43.12906738 214.42435303 43.25813477 213.84870605 43.39111328 213.25561523 C43.99721499 211.01031703 44.79043874 209.03000517 45.7421875 206.91015625 C49.80018089 197.69741449 53.34964577 188.98396115 55 179 C55.27457031 177.36417969 55.27457031 177.36417969 55.5546875 175.6953125 C56.06261553 171.48040093 56.1910777 167.36591155 56.1875 163.125 C56.18814453 162.3306958 56.18878906 161.5363916 56.18945312 160.71801758 C56.13958709 155.19818739 55.44854589 150.34151298 54 145 C53.875 141.9375 53.875 141.9375 54 140 C55.32 140.33 56.64 140.66 58 141 C58 141.66 58 142.32 58 143 C58.66 143 59.32 143 60 143 C60 143.66 60 144.32 60 145 C60.65097656 145.20625 61.30195312 145.4125 61.97265625 145.625 C66.20501159 147.54730849 69.71213403 150.24140271 73.4375 153 C75.06095595 154.18783078 76.68465618 155.37532776 78.30859375 156.5625 C79.50718018 157.44228516 79.50718018 157.44228516 80.72998047 158.33984375 C83.80149918 160.58616847 86.89814868 162.79585986 90 165 C115.15635453 182.93973178 115.15635453 182.93973178 122.37109375 188.828125 C124.11055435 190.20203393 124.11055435 190.20203393 127 191 C127.66 191.70125 128.32 192.4025 129 193.125 C132.21664816 196.48610841 136.09882271 198.67665627 140.03125 201.11328125 C143.93432661 203.59378915 147.65507626 206.2777458 151.36328125 209.0390625 C153.04789895 210.29191892 154.75228284 211.51889746 156.48046875 212.7109375 C164.60153531 218.50586942 168.23957648 225.96194682 172 235 C172.29922363 235.71881348 172.59844727 236.43762695 172.90673828 237.17822266 C173.55620169 238.74030267 174.20502897 240.30264731 174.85327148 241.86523438 C176.23768136 245.18120201 177.65091362 248.48459032 179.06591797 251.78759766 C179.8445429 253.63179501 180.58530526 255.49192052 181.31640625 257.35546875 C183.21435648 261.91958972 183.21435648 261.91958972 186.8125 265.1171875 C189.18993651 265.96502331 191.52887733 266.48369915 194 267 C196.27460074 267.63243672 198.54521001 268.27933525 200.8125 268.9375 C202.01003906 269.2778125 203.20757813 269.618125 204.44140625 269.96875 C215.58955048 273.19938675 225.94952765 276.78796239 235.296875 283.8203125 C237.68959415 285.47765467 240.25591258 286.64304127 242.87890625 287.890625 C246.10306483 289.57692525 249.04081955 291.64800659 252.01953125 293.73046875 C254.07175611 295.16044463 254.07175611 295.16044463 257 296 C257 296.66 257 297.32 257 298 C257.79857422 298.13148438 257.79857422 298.13148438 258.61328125 298.265625 C261.83902463 299.25816142 264.34127728 300.94093132 267.1875 302.75 C270.88697619 305.07933792 274.58218838 307.37215449 278.4375 309.4375 C282.83422386 311.83498892 287.01017276 314.54722054 291.20581055 317.27441406 C302.29361944 324.45901953 313.64922144 331.24086804 325 338 C322.45142511 343.74100027 318.05472733 348.27712697 314 353 C313.35675781 353.75410156 312.71351563 354.50820313 312.05078125 355.28515625 C306.35944501 361.47761644 299.46240729 364.84842362 291.69921875 367.90625 C283.72010873 371.25282818 280.33047599 378.71182661 276.125 385.875 C273.77289718 389.83907729 271.2493788 393.62882719 268.5625 397.375 C267.51255859 398.84066406 267.51255859 398.84066406 266.44140625 400.3359375 C261.83665093 405.3606465 255.79909958 407.66040896 249.5625 410.0625 C248.90290283 410.32144043 248.24330566 410.58038086 247.5637207 410.84716797 C243.05902629 412.60989866 238.53229561 414.30999147 234 416 C232.39457963 416.64271052 230.79050334 417.28878459 229.1875 417.9375 C223.83924211 420.09177495 218.42894248 422.05961752 213 424 C214.44335935 429.34042961 217.0341949 433.83978629 219.7578125 438.609375 C221 441 221 441 221 443 C221.66 443 222.32 443 223 443 C224.5625 445.8125 224.5625 445.8125 226 449 C225.67 449.99 225.34 450.98 225 452 C222.4633481 453.21711089 219.99846523 454.25732981 217.375 455.25 C215.80611665 455.86811966 214.23842536 456.48927256 212.671875 457.11328125 C211.88232422 457.4273291 211.09277344 457.74137695 210.27929688 458.06494141 C207.00148701 459.4096299 203.82305823 460.91178881 200.625 462.4375 C192.45069531 466.33661544 184.10071619 469.80283284 175.7331543 473.26318359 C174.47009043 473.80015031 173.22757112 474.38621444 172 475 C172.67883043 471.88452559 173.74106902 469.14862279 175.0625 466.25 C175.42472656 465.45078125 175.78695312 464.6515625 176.16015625 463.828125 C176.43730469 463.22484375 176.71445312 462.6215625 177 462 C169.78357459 464.65808773 162.79721056 467.42509397 156.0234375 471.08203125 C154 472 154 472 151 472 C149.4921875 470.41796875 149.4921875 470.41796875 147.875 468.1875 C145.04836272 464.39655149 142.16818445 460.67185765 139.1875 457 C138.43855469 456.071875 137.68960938 455.14375 136.91796875 454.1875 C135.18799256 451.93662236 135.18799256 451.93662236 133 451 C133 450.34 133 449.68 133 449 C132.21625 448.690625 131.4325 448.38125 130.625 448.0625 C128 447 128 447 126 446 C126 445.34 126 444.68 126 444 C125.27369385 443.87415527 124.5473877 443.74831055 123.79907227 443.61865234 C121.08870472 443.01960556 118.77592926 442.1578108 116.21484375 441.1015625 C108.85009782 438.37716025 101.30012453 437.40571743 93.5625 436.375 C92.8001001 436.27016296 92.0377002 436.16532593 91.25219727 436.05731201 C70.25596407 433.177738 49.16819283 430.83819776 28 433 C27.16355957 433.07847168 26.32711914 433.15694336 25.46533203 433.23779297 C-1.99580763 435.7072624 -1.99580763 435.7072624 -28 444 C-27.39341553 443.91959473 -26.78683105 443.83918945 -26.16186523 443.75634766 C-12.00573708 441.89506175 2.13992066 440.28693564 16.37792969 439.20410156 C18.79815401 439.01571166 21.21501809 438.80287874 23.6328125 438.5859375 C52.40399257 436.21973945 82.0299426 442.11655647 107.65625 455.30859375 C111.81667043 457.41310548 116.0280475 459.39754672 120.25 461.375 C121.3961377 461.91217651 121.3961377 461.91217651 122.56542969 462.46020508 C124.37640008 463.30798576 126.1881182 464.15416892 128 465 C128 465.99 128 466.98 128 468 C127.14277344 468.32613281 126.28554688 468.65226562 125.40234375 468.98828125 C119.55306289 471.22380122 113.72814527 473.46895906 108 476 C111.17219345 476.53195244 114.34441616 477.05307522 117.5234375 477.54296875 C127.57670753 479.2253111 136.58086084 482.14427485 146 486 C147.6665148 486.66704621 149.33311362 487.33388288 151 488 C151 488.66 151 489.32 151 490 C151.99 490 152.98 490 154 490 C154 490.66 154 491.32 154 492 C154.57492187 492.11214844 155.14984375 492.22429687 155.7421875 492.33984375 C162.91007106 494.43564361 169.16871483 500.62389976 174.8359375 505.265625 C177.084325 507.11941556 177.084325 507.11941556 180 509 C180 509.66 180 510.32 180 511 C180.99 511.33 181.98 511.66 183 512 C183 512.66 183 513.32 183 514 C183.556875 514.226875 184.11375 514.45375 184.6875 514.6875 C187.66159588 516.37550036 189.72008865 518.46676517 192 521 C192 521.66 192 522.32 192 523 C185.39717922 520.86869059 178.91120376 518.49385257 172.4375 516 C170.64460281 515.31231341 168.85163509 514.62481065 167.05859375 513.9375 C166.20894043 513.61136719 165.35928711 513.28523437 164.48388672 512.94921875 C160.99542936 511.61610275 157.49856147 510.30634734 154 509 C154.67546875 509.73605469 155.3509375 510.47210937 156.046875 511.23046875 C156.94799772 512.21607173 157.84903483 513.20175299 158.75 514.1875 C159.63171875 515.15042969 160.5134375 516.11335937 161.421875 517.10546875 C168 524.49090909 168 524.49090909 168 527 C168.99 527.33 169.98 527.66 171 528 C174 531.44444444 174 531.44444444 174 534 C174.66 534 175.32 534 176 534 C177.51984883 535.67535459 178.96706453 537.41705622 180.375 539.1875 C181.14585937 540.15042969 181.91671875 541.11335937 182.7109375 542.10546875 C183.46632813 543.06066406 184.22171875 544.01585937 185 545 C186.97253474 547.48463511 188.95569689 549.94776715 191.0078125 552.3671875 C195.47268835 557.65584118 199.56819153 563.0772023 203.4375 568.8125 C204.07486084 569.74521729 204.07486084 569.74521729 204.72509766 570.69677734 C207.14815806 574.35143774 208.80422506 577.73310909 210 582 C210.66 582 211.32 582 212 582 C213.00460531 584.12282669 214.00355602 586.24833021 215 588.375 C215.8353125 590.15003906 215.8353125 590.15003906 216.6875 591.9609375 C218 595 218 595 218 597 C218.66 597 219.32 597 220 597 C220.38671875 598.03898438 220.7734375 599.07796875 221.171875 600.1484375 C221.69772496 601.55736323 222.22378089 602.9662121 222.75 604.375 C223.02440918 605.11089355 223.29881836 605.84678711 223.58154297 606.60498047 C225.03092388 610.47538004 226.52613982 614.31331733 228.125 618.125 C235.12663577 635.71588655 239.2011883 656.04791798 238 675 C237.01 674.67 236.02 674.34 235 674 C235 672.68 235 671.36 235 670 C234.34 670 233.68 670 233 670 C232.57589844 668.92363281 232.15179687 667.84726562 231.71484375 666.73828125 C228.01043421 657.46927147 223.95969938 648.66816761 219 640 C219.144375 640.8765625 219.28875 641.753125 219.4375 642.65625 C222.08017984 660.71456223 222.45118177 679.21279728 218 697 C217.75056641 698.0199707 217.75056641 698.0199707 217.49609375 699.06054688 C214.92599259 709.19816811 210.94318827 717.38753859 205 726 C202.38435879 723.38435879 202.32618907 721.49643529 201.625 717.875 C201.36460937 716.61429688 201.10421875 715.35359375 200.8359375 714.0546875 C200.69897461 713.38920898 200.56201172 712.72373047 200.42089844 712.03808594 C197.33763629 697.10822958 192.54344652 684.80018127 184 672 C183.34 670.948125 182.68 669.89625 182 668.8125 C179.89768438 665.85611866 177.6258732 663.49778183 175 661 C174.175 660.154375 173.35 659.30875 172.5 658.4375 C170.03416242 655.94271376 170.03416242 655.94271376 167.1875 653.8125 C166.465625 653.214375 165.74375 652.61625 165 652 C165 651.34 165 650.68 165 650 C164.4225 649.71125 163.845 649.4225 163.25 649.125 C161.16666667 648.08333333 159.08333333 647.04166667 157 646 C157 645.34 157 644.68 157 644 C156.46890625 643.7421875 155.9378125 643.484375 155.390625 643.21875 C152.46166356 641.72555397 149.60618218 640.12816182 146.75 638.5 C145.67234375 637.8915625 144.5946875 637.283125 143.484375 636.65625 C142.66453125 636.1096875 141.8446875 635.563125 141 635 C141 634.34 141 633.68 141 633 C139.99710938 632.74605469 138.99421875 632.49210938 137.9609375 632.23046875 C133.92898121 631.07631367 130.32160298 629.26514109 126.625 627.3125 C104.93322117 616.22469484 81.64104241 608.70685367 58 603 C56.86820313 602.72671875 55.73640625 602.4534375 54.5703125 602.171875 C51.38494674 601.42518078 48.19343899 600.71131701 45 600 C43.67038476 599.69091244 42.34096933 599.38096457 41.01171875 599.0703125 C22.57355823 594.80570394 3.91762116 591.86554363 -14.82421875 589.29931641 C-17.88458173 588.87831046 -20.9422799 588.43975276 -24 588 C-24 588.66 -24 589.32 -24 590 C-23.46761719 590.22171875 -22.93523437 590.4434375 -22.38671875 590.671875 C-19.17497459 592.45909761 -16.55972804 594.83703545 -13.8125 597.25 C-5.17846374 604.88105112 -5.17846374 604.88105112 5 610 C5 610.66 5 611.32 5 612 C5.70125 612.0825 6.4025 612.165 7.125 612.25 C10.67163474 613.17520906 12.95244358 614.96706588 16 617 C27.92341682 623.1875307 40.54792268 628.00176313 53 633 C53 633.99 53 634.98 53 636 C17.6063178 636.63923016 17.6063178 636.63923016 2 633 C0.82824219 632.73316406 -0.34351563 632.46632813 -1.55078125 632.19140625 C-12.04191166 629.46879455 -22.01062037 625.15292212 -32 621 C-32 620.34 -32 619.68 -32 619 C-32.53882813 618.90460937 -33.07765625 618.80921875 -33.6328125 618.7109375 C-47.306867 614.60420826 -60.71264353 601.49219848 -71 592 C-71.76957031 591.29230469 -71.76957031 591.29230469 -72.5546875 590.5703125 C-74.84573229 588.38281776 -75.97945017 587.0616495 -77 584 C-77.66 584 -78.32 584 -79 584 C-80.48046875 582.53125 -80.48046875 582.53125 -82.1875 580.5 C-82.80109375 579.778125 -83.4146875 579.05625 -84.046875 578.3125 C-84.69140625 577.549375 -85.3359375 576.78625 -86 576 C-87.30962265 574.49748719 -88.62197391 572.99734677 -89.9375 571.5 C-90.95833333 570.33333333 -91.97916667 569.16666667 -93 568 C-91.46793601 577.21427057 -82.69627028 585.86015437 -77 593 C-75.85368468 594.49963169 -74.70785599 595.99963548 -73.5625 597.5 C-70.41010329 601.57662211 -67.01120943 605.3788316 -63.50390625 609.15234375 C-62 611 -62 611 -62 613 C-61.46117187 613.20882812 -60.92234375 613.41765625 -60.3671875 613.6328125 C-56.49316962 615.87028157 -53.65760702 619.26399876 -50.59765625 622.48046875 C-48.07919358 625.07622439 -45.68067511 627.31682416 -42.6171875 629.2578125 C-41.75351562 629.83273437 -40.88984375 630.40765625 -40 631 C-40 631.66 -40 632.32 -40 633 C-39.21109375 633.32484375 -39.21109375 633.32484375 -38.40625 633.65625 C-34.43472615 635.87411397 -31.18227604 639.02371694 -27.77734375 642.01171875 C-24.99222706 644.42204015 -22.42689837 646.5889242 -19 648 C-19.33 648.99 -19.66 649.98 -20 651 C-27.57345494 649.33383991 -34.73825871 646.69533417 -42 644 C-42.85722656 643.69191406 -43.71445312 643.38382813 -44.59765625 643.06640625 C-56.25268949 638.68847223 -67.02781377 632.39965123 -77 625 C-78.31390205 624.06081599 -79.62911418 623.12346325 -80.9453125 622.1875 C-82.33892718 621.18803732 -83.73215634 620.18803688 -85.125 619.1875 C-85.80175781 618.70692139 -86.47851562 618.22634277 -87.17578125 617.73120117 C-88.82074907 616.53669168 -90.41565069 615.27381684 -92 614 C-92 613.34 -92 612.68 -92 612 C-92.53625 611.773125 -93.0725 611.54625 -93.625 611.3125 C-96.82460161 609.54429911 -99.29037223 607.46329797 -102 605 C-102 604.34 -102 603.68 -102 603 C-102.639375 602.731875 -103.27875 602.46375 -103.9375 602.1875 C-106 601 -106 601 -107 598 C-107.88365234 597.56107422 -107.88365234 597.56107422 -108.78515625 597.11328125 C-111.70802424 595.6441148 -113.30296262 593.65498082 -115.4375 591.1875 C-117.84429317 588.44138845 -120.22933311 585.77066689 -122.8125 583.1875 C-125.07990624 580.92009376 -126.99820868 578.50223915 -129 576 C-130.6454378 574.31237149 -132.31288577 572.6459651 -134 571 C-138.34324742 566.72179289 -142.42568247 562.25142825 -146.5 557.71875 C-148.19523561 555.87518127 -149.94860473 554.08373406 -151.75 552.34375 C-154 550 -154 550 -155 547 C-155.598125 546.71125 -156.19625 546.4225 -156.8125 546.125 C-159.71795946 544.6307637 -161.01848945 542.5819683 -163 540 C-165.22737122 537.71830265 -167.47892287 535.48514077 -169.8125 533.3125 C-171 532 -171 532 -171 530 C-171.598125 529.731875 -172.19625 529.46375 -172.8125 529.1875 C-174.99847854 528.00082594 -176.41332594 526.90400887 -178 525 C-178 524.34 -178 523.68 -178 523 C-178.99 522.67 -179.98 522.34 -181 522 C-182.54296875 520.43359375 -182.54296875 520.43359375 -184.1875 518.4375 C-190.44095711 511.10045847 -197.16107765 504.89957514 -204.77734375 498.98046875 C-207 497 -207 497 -208 494 C-209.31114596 493.29069153 -210.65122712 492.63484955 -212 492 C-214.12347383 490.50024345 -216.22124873 488.9806387 -218.3125 487.4375 C-225.60991437 482.14817666 -233.15798177 477.4358891 -241 473 C-241.99515625 472.4328125 -242.9903125 471.865625 -244.015625 471.28125 C-265.03183 460.02667027 -290.60946456 456.83753511 -313.73046875 462.34375 C-316.91753247 462.98344738 -319.76010415 463.11799317 -323 463 C-322.49339844 462.00419922 -322.49339844 462.00419922 -321.9765625 460.98828125 C-321.53054688 460.10527344 -321.08453125 459.22226562 -320.625 458.3125 C-319.96371094 457.00732422 -319.96371094 457.00732422 -319.2890625 455.67578125 C-318.07335732 453.15227201 -317.00739042 450.61262468 -316 448 C-315.34 448 -314.68 448 -314 448 C-313.01 445.03 -312.02 442.06 -311 439 C-310.34 439 -309.68 439 -309 439 C-309 438.34 -309 437.68 -309 437 C-322.61087215 440.63942996 -322.61087215 440.63942996 -336 445 C-337.72863281 445.59361328 -337.72863281 445.59361328 -339.4921875 446.19921875 C-352.41556949 450.74177867 -364.89349459 456.6833161 -376.04296875 464.7109375 C-378 466 -378 466 -380.8984375 467.41796875 C-384.02370392 469.01209079 -386.64254882 470.82404635 -389.4375 472.9375 C-393.50590792 475.95545833 -397.53381264 478.61803341 -402 481 C-400.47035308 475.56125541 -396.71437303 472.06378236 -393 468 C-391.91389289 466.75240934 -390.83055509 465.50240241 -389.75 464.25 C-372.84622765 444.95847505 -372.84622765 444.95847505 -366 439 C-365.34 439 -364.68 439 -364 439 C-364 438.34 -364 437.68 -364 437 C-362.6015625 435.58984375 -362.6015625 435.58984375 -360.625 433.9375 C-357.38595496 431.19457629 -354.2398488 428.38320656 -351.125 425.5 C-347.02437222 421.7911117 -342.75319854 418.58715555 -338.1796875 415.48828125 C-335.67926666 413.78100465 -333.35101675 411.9062298 -331 410 C-327.10634974 407.0631835 -323.16754416 404.46548045 -318.890625 402.10546875 C-315.89115097 400.35164406 -313.06062804 398.35271195 -310.2109375 396.3671875 C-307.88188514 394.92696077 -305.56528468 393.94510488 -303 393 C-303.33 392.67 -303.66 392.34 -304 392 C-326.68346858 398.46712794 -346.45370629 407.44714211 -366.828125 419.20703125 C-372.0455537 422.15629205 -377.30279326 425.10093109 -383 427 C-378.68496009 415.37758094 -371.15437018 405.0215796 -364 395 C-363.46890625 394.21882813 -362.9378125 393.43765625 -362.390625 392.6328125 C-361.31159814 391.05235551 -360.1650799 389.51813442 -359 388 C-358.34 388 -357.68 388 -357 388 C-356.73445313 387.41734375 -356.46890625 386.8346875 -356.1953125 386.234375 C-342.55806222 360.74252153 -306.35327385 340.26737199 -281.19921875 328.0625 C-276.57583808 325.81500804 -272.03944307 323.41149338 -267.5 321 C-260.74703271 317.41604981 -253.95523254 313.93196674 -247.07421875 310.59960938 C-243.79375237 308.99051985 -240.83019942 307.31948674 -238 305 C-252.45215912 306.91600594 -266.10973255 310.62462965 -280 315 C-280.7120459 315.21914063 -281.4240918 315.43828125 -282.15771484 315.6640625 C-291.74317441 318.64322631 -300.2700388 323.13533247 -309.02832031 327.93945312 C-311.81298549 329.4372968 -314.65361122 330.81138329 -317.5 332.1875 C-321.89785612 334.3592808 -325.94689974 336.79523045 -329.96484375 339.60546875 C-332.25455657 341.17442744 -334.61556689 342.57933476 -337 344 C-338.94116104 345.22337679 -340.87863495 346.45262231 -342.8125 347.6875 C-344.27623047 348.62142578 -344.27623047 348.62142578 -345.76953125 349.57421875 C-346.87361328 350.27998047 -346.87361328 350.27998047 -348 351 C-348.33 350.34 -348.66 349.68 -349 349 C-345.80317981 340.42670949 -340.84465125 332.72438411 -336 325 C-335.45472656 324.11320557 -335.45472656 324.11320557 -334.8984375 323.20849609 C-333.98715092 321.7694227 -332.99984149 320.37901866 -332 319 C-331.34 319 -330.68 319 -330 319 C-329.77699219 318.45988281 -329.55398438 317.91976563 -329.32421875 317.36328125 C-327.57463959 314.24087597 -325.24787525 311.77835078 -322.8125 309.1875 C-322.31492187 308.65342529 -321.81734375 308.11935059 -321.3046875 307.5690918 C-319.87536795 306.04069442 -318.43874188 304.51952262 -317 303 C-316.37480469 302.33226562 -315.74960937 301.66453125 -315.10546875 300.9765625 C-310.14605571 295.83614898 -304.57038625 291.45477022 -299 287 C-298.14921875 286.30519531 -297.2984375 285.61039062 -296.421875 284.89453125 C-290.79042907 280.31676781 -285.00801181 276.06887421 -279 272 C-278.13834229 271.41532959 -278.13834229 271.41532959 -277.25927734 270.81884766 C-263.90578126 261.776076 -250.1446375 253.73779251 -236 246 C-235.26765137 245.59813477 -234.53530273 245.19626953 -233.78076172 244.78222656 C-223.73819963 239.29208071 -213.55773663 234.41918721 -203 230 C-210.94848815 227.77669336 -218.56234434 229.2465869 -226.4375 231.125 C-227.39615967 231.3509082 -228.35481934 231.57681641 -229.3425293 231.80957031 C-244.39234211 235.45574255 -257.68074403 240.42547879 -271.1875 248.00292969 C-273.58313275 249.32078585 -276.03393919 250.50774869 -278.5 251.6875 C-282.55060583 253.67497892 -286.17462293 256.08052259 -289.8828125 258.640625 C-292.80294694 260.51554527 -295.76454175 261.76088833 -299 263 C-297.54997977 258.89160936 -295.6020866 255.49655387 -293 252 C-292.34 252 -291.68 252 -291 252 C-290.62488281 251.15308594 -290.62488281 251.15308594 -290.2421875 250.2890625 C-278.81703079 229.23515737 -250.16697497 214.18634431 -229 205 C-228.29230469 204.69143066 -227.58460938 204.38286133 -226.85546875 204.06494141 C-219.14085784 200.7266251 -211.54897881 197.6315495 -203.3671875 195.6171875 C-199.79817722 194.68665347 -196.43900848 193.32733661 -193 192 C-191.67103457 191.64965762 -190.33852514 191.31183223 -189 191 C-192.14538695 190.51787364 -195.29138596 190.03985675 -198.4375 189.5625 C-199.31599609 189.42779297 -200.19449219 189.29308594 -201.09960938 189.15429688 C-205.40655383 188.50269273 -209.70144617 187.90854759 -214.03515625 187.46484375 C-218 187 -218 187 -220 186 C-220 185.34 -220 184.68 -220 184 C-188.89389603 169.70683211 -155.91763976 160.20384373 -121.47265625 161.19140625 C-119.44716572 161.23602058 -117.42163677 161.27829806 -115.39608765 161.32015991 C-113.41522328 161.37390858 -111.43559831 161.46839963 -109.45629883 161.5637207 C-101.26346488 161.77060212 -101.26346488 161.77060212 -94.38671875 157.78125 C-93.2247711 156.55122677 -92.09170474 155.29277231 -91 154 C-90.17371094 153.15695312 -89.34742188 152.31390625 -88.49609375 151.4453125 C-84.24175354 146.65009792 -80.1974758 141.79229554 -76.41015625 136.6171875 C-75.94480469 136.08351562 -75.47945313 135.54984375 -75 135 C-74.34 135 -73.68 135 -73 135 C-72.773125 134.29875 -72.54625 133.5975 -72.3125 132.875 C-71.04036611 130.08842101 -69.53164525 128.13114785 -67.53613281 125.83325195 C-61.04877243 118.09110493 -55.66637147 109.51676723 -50.375 100.9375 C-49.7459375 99.92623047 -49.116875 98.91496094 -48.46875 97.87304688 C-40.87405731 85.86333386 -40.87405731 85.86333386 -34.125 73.375 C-33.3825 71.86099609 -33.3825 71.86099609 -32.625 70.31640625 C-31.820625 68.67478516 -31.820625 68.67478516 -31 67 C-30.37664603 65.75828689 -29.7515728 64.51743574 -29.125 63.27734375 C-22.75625063 50.66555435 -16.54763187 37.99191458 -11.21484375 24.90234375 C-9.40169404 20.57060666 -7.40996572 16.32579857 -5.42578125 12.0703125 C-3.56746285 8.06856384 -1.77445673 4.03949856 0 0 Z M128 274 C129 276 129 276 129 276 Z M122 285 C122.66 285.66 123.32 286.32 124 287 C124 286.34 124 285.68 124 285 C123.34 285 122.68 285 122 285 Z M-78 290 C-78 290.66 -78 291.32 -78 292 C-77.34 292 -76.68 292 -76 292 C-76 291.34 -76 290.68 -76 290 C-76.66 290 -77.32 290 -78 290 Z M135 381 C133.73339956 382.78654143 132.51299685 384.6058848 131.3125 386.4375 C130.59707031 387.52417969 129.88164063 388.61085938 129.14453125 389.73046875 C128.43683594 390.80941406 127.72914063 391.88835937 127 393 C125.8350247 394.7511264 124.66859681 396.5012883 123.5 398.25 C122.77296875 399.34054687 122.77296875 399.34054687 122.03125 400.453125 C121.6909375 400.96359375 121.350625 401.4740625 121 402 C131.60850726 405.17249076 144.76191655 402.73725885 155.75 402.125 C157.40770494 402.03513604 159.06541995 401.94545793 160.72314453 401.85595703 C176.81989875 400.98002634 192.91096589 400.0069812 209 399 C209 398.34 209 397.68 209 397 C207.88882813 396.67386719 206.77765625 396.34773438 205.6328125 396.01171875 C204.55906372 395.69605957 204.55906372 395.69605957 203.46362305 395.37402344 C201.89519762 394.91359831 200.32634366 394.45463062 198.75708008 393.99707031 C194.70876361 392.81342568 190.69306117 391.5720325 186.6875 390.25 C175.20779172 386.87589655 165.21843182 388.26052273 154 392 C148.11860343 389.5236225 143.15493617 386.13396888 138.00390625 382.390625 C136.26959962 380.90497905 136.26959962 380.90497905 135 381 Z " fill="#FFFFFF" transform="translate(523,118)"/>
<path d="M0 0 C1.35384862 3.79935895 0.69705342 6.83612918 0.00390625 10.75390625 C-0.23029603 12.1578131 -0.46202538 13.5621341 -0.69165039 14.96679688 C-0.81428253 15.7130835 -0.93691467 16.45937012 -1.06326294 17.22827148 C-6.78765671 52.93302813 -5.95336865 89.51394126 3.16796875 124.58203125 C4.01088446 128.04471316 4.55208464 131.46644549 5 135 C0.90454893 132.95227447 -1.55990602 130.41693512 -4.375 126.9140625 C-6.07360241 124.86014881 -6.07360241 124.86014881 -8.42578125 122.578125 C-19.35605197 111.63126813 -28.65115043 98.10035194 -35 84 C-35.49886719 82.96939453 -35.49886719 82.96939453 -36.0078125 81.91796875 C-38.23799479 77.18541656 -40.06693272 72.30405166 -41.8125 67.375 C-42.25207031 66.14523438 -42.69164062 64.91546875 -43.14453125 63.6484375 C-44.46782908 58.00478373 -43.56963966 53.14711359 -41 48 C-39.26254312 45.24223967 -37.39642982 42.58776807 -35.5 39.9375 C-34.96681152 39.18742676 -34.43362305 38.43735352 -33.88427734 37.66455078 C-29.21738993 31.16865427 -24.23021185 25.04860831 -19 19 C-18.44828125 18.32582031 -17.8965625 17.65164062 -17.328125 16.95703125 C-14.16436492 13.10438793 -10.69901326 9.87279343 -6.90234375 6.64453125 C-4.470997 4.5426894 -2.23645947 2.30634883 0 0 Z " fill="#FFFFFF" transform="translate(595,126)"/>
<path d="M0 0 C0.99 0 1.98 0 3 0 C3 0.66 3 1.32 3 2 C4.32 2.33 5.64 2.66 7 3 C7 3.66 7 4.32 7 5 C7.99 5 8.98 5 10 5 C11.60546875 6.4609375 11.60546875 6.4609375 13.1875 8.375 C13.71730469 9.00148438 14.24710937 9.62796875 14.79296875 10.2734375 C16 12 16 12 16 14 C16.66 14 17.32 14 18 14 C17.67 15.32 17.34 16.64 17 18 C14.16266225 15.19151503 11.33081251 12.37756077 8.5 9.5625 C7.68917969 8.76005859 6.87835938 7.95761719 6.04296875 7.13085938 C5.27597656 6.36708984 4.50898438 5.60332031 3.71875 4.81640625 C3.00654297 4.10943604 2.29433594 3.40246582 1.56054688 2.67407227 C0 1 0 1 0 0 Z " fill="#FFFFFF" transform="translate(244,728)"/>
<path d="M0 0 C0.66 0.33 1.32 0.66 2 1 C1.31292969 2.08539063 0.62585938 3.17078125 -0.08203125 4.2890625 C-0.99233279 5.7342835 -1.90248092 7.17960113 -2.8125 8.625 C-3.49022461 9.69427734 -3.49022461 9.69427734 -4.18164062 10.78515625 C-6.6837017 14.76653811 -8.97971097 18.74464038 -11 23 C-11.33 23 -11.66 23 -12 23 C-12 21.35 -12 19.7 -12 18 C-11.34 18 -10.68 18 -10 18 C-9.67 15.69 -9.34 13.38 -9 11 C-8.34 11 -7.68 11 -7 11 C-6.9175 10.443125 -6.835 9.88625 -6.75 9.3125 C-5.76104459 6.26322081 -4.15242534 4.34810037 -2 2 C-1.34 2 -0.68 2 0 2 C0 1.34 0 0.68 0 0 Z " fill="#FFFFFF" transform="translate(149,416)"/>
<path d="M0 0 C0.99 0.33 1.98 0.66 3 1 C4.1875 3.5625 4.1875 3.5625 5 6 C5.66 6 6.32 6 7 6 C7 6.66 7 7.32 7 8 C4.625 7.375 4.625 7.375 2 6 C0.6875 2.875 0.6875 2.875 0 0 Z " fill="#FFFFFF" transform="translate(643,246)"/>
<path d="M0 0 C3.465 1.485 3.465 1.485 7 3 C7 3.33 7 3.66 7 4 C4.69 4 2.38 4 0 4 C-0.33 3.01 -0.66 2.02 -1 1 C-0.67 0.67 -0.34 0.34 0 0 Z " fill="#FFFFFF" transform="translate(618,779)"/>
<path d="M0 0 C1.98 0.99 1.98 0.99 4 2 C3.01 2.33 2.02 2.66 1 3 C0.67 2.01 0.34 1.02 0 0 Z " fill="#FFFFFF" transform="translate(739,343)"/>
<path d="M0 0 C0.33 0.66 0.66 1.32 1 2 C0.34 2.66 -0.32 3.32 -1 4 C-0.67 2.68 -0.34 1.36 0 0 Z " fill="#FFFFFF" transform="translate(795,747)"/>
<path d="M0 0 C0.66 0.66 1.32 1.32 2 2 C1.34 2.66 0.68 3.32 0 4 C0 2.68 0 1.36 0 0 Z " fill="#FFFFFF" transform="translate(134,441)"/>
<path d="M0 0 C0.33 0.99 0.66 1.98 1 3 C0.34 2.67 -0.32 2.34 -1 2 C-0.67 1.34 -0.34 0.68 0 0 Z " fill="#FFFFFF" transform="translate(781,772)"/>
<path d="M0 0 C0.33 0.99 0.66 1.98 1 3 C0.34 2.67 -0.32 2.34 -1 2 C-0.67 1.34 -0.34 0.68 0 0 Z " fill="#FFFFFF" transform="translate(797,743)"/>
<path d="M0 0 C0.99 0.33 1.98 0.66 3 1 C2.01 1 1.02 1 0 1 C0 0.67 0 0.34 0 0 Z " fill="#FFFFFF" transform="translate(405,231)"/>
<path d="M0 0 C3 1 3 1 3 1 Z " fill="#FFFFFF" transform="translate(743,346)"/>
<path d="" fill="#FFFFFF" transform="translate(0,0)"/>
<path d="M0 0 C3 1 3 1 3 1 Z " fill="#FFFFFF" transform="translate(826,81)"/>
<path d="" fill="#FFFFFF" transform="translate(0,0)"/>
<path d="" fill="#FFFFFF" transform="translate(0,0)"/>
<path d="" fill="#FFFFFF" transform="translate(0,0)"/>
<path d="" fill="#FFFFFF" transform="translate(0,0)"/>
<path d="" fill="#FFFFFF" transform="translate(0,0)"/>
<path d="" fill="#FFFFFF" transform="translate(0,0)"/>
<path d="" fill="#FFFFFF" transform="translate(0,0)"/>
<path d="" fill="#FFFFFF" transform="translate(0,0)"/>
<path d="" fill="#FFFFFF" transform="translate(0,0)"/>
</svg>
